<svg width="52" height="49" viewBox="0 0 52 49" fill="none" xmlns="http://www.w3.org/2000/svg">
<path fill-rule="evenodd" clip-rule="evenodd" d="M12 0C5.37258 0 0 5.37258 0 12V28C0 33.9989 4.40191 38.9697 10.1519 39.8586C8.7955 37.9146 8 35.5502 8 33V17C8 10.3726 13.3726 5 20 5H36C36.6285 5 37.2457 5.04832 37.8481 5.14144C35.6795 2.03341 32.0772 0 28 0H12Z" fill="url(#paint0_linear_16_17)"/>
<path fill-rule="evenodd" clip-rule="evenodd" d="M26 9C19.3726 9 14 14.3726 14 21V37C14 42.9989 18.4019 47.9697 24.1519 48.8586C22.7955 46.9146 22 44.5502 22 42V26C22 19.3726 27.3726 14 34 14H50C50.6285 14 51.2457 14.0483 51.8481 14.1414C49.6795 11.0334 46.0772 9 42 9H26Z" fill="url(#paint1_linear_16_17)"/>
<defs>
<linearGradient id="paint0_linear_16_17" x1="18.9241" y1="0" x2="18.9241" y2="39.8586" gradientUnits="userSpaceOnUse">
<stop stop-color="#5C3EAF"/>
<stop offset="1" stop-color="#D279F5"/>
</linearGradient>
<linearGradient id="paint1_linear_16_17" x1="32.9241" y1="9" x2="32.9241" y2="48.8586" gradientUnits="userSpaceOnUse">
<stop stop-color="#5C3EAF"/>
<stop offset="1" stop-color="#D279F5"/>
</linearGradient>
</defs>
</svg>
