<svg width="20" height="20" viewBox="0 0 20 20" fill="none" xmlns="http://www.w3.org/2000/svg">
<g id="Wallet">
<path id="Wallet_2" fill-rule="evenodd" clip-rule="evenodd" d="M5.81204 0.460663H14.188C17.3978 0.460663 20 3.11839 20 6.39674V7.13796L20.0002 7.15443L20 7.17091V12.4652L20.0002 12.4817L20 12.4982V13.5001C20 16.7784 17.3978 19.4362 14.188 19.4362H5.81204C2.60219 19.4362 0 16.7784 0 13.5001V6.39674C0 3.11839 2.60219 0.460663 5.81204 0.460663ZM18.5464 6.39674V6.41213H15.3504L15.1673 6.41728C13.4101 6.51529 12.0147 8.00006 12.0147 9.81807C12.0159 11.6992 13.5084 13.2229 15.3499 13.224H18.5464V13.5001C18.5464 15.9585 16.595 17.9516 14.188 17.9516H5.81204C3.40498 17.9516 1.45358 15.9585 1.45358 13.5001V6.39674C1.45358 3.93831 3.40498 1.94526 5.81204 1.94526H14.188C16.595 1.94526 18.5464 3.93831 18.5464 6.39674ZM15.3508 7.89673H18.5464V11.7394H15.3504L15.2033 11.7335C14.2329 11.6564 13.4689 10.8284 13.4683 9.81762C13.4683 8.75738 14.3109 7.89738 15.3508 7.89673ZM16.521 9.75805C16.521 9.34756 16.1956 9.0148 15.7942 9.0148H15.4921L15.3935 9.02158C15.0388 9.0708 14.7653 9.38177 14.7653 9.75805C14.7653 10.1685 15.0907 10.5013 15.4921 10.5013H15.7942L15.8928 10.4945C16.2475 10.4453 16.521 10.1343 16.521 9.75805ZM11.0807 5.69549C11.0807 5.285 10.7553 4.95223 10.3539 4.95223H5.12203L5.0234 4.95901C4.66866 5.00823 4.39524 5.3192 4.39524 5.69549C4.39524 6.10598 4.72063 6.43874 5.12203 6.43874H10.3539L10.4525 6.43196C10.8073 6.38274 11.0807 6.07177 11.0807 5.69549Z" fill="white"/>
</g>
</svg>
