<svg width="23" height="24" viewBox="0 0 23 24" fill="none" xmlns="http://www.w3.org/2000/svg">
<path d="M16.5117 15.6616C19.3499 14.101 21.5017 12.912 21.6871 12.8196C22.2802 12.5036 22.893 11.6674 21.6871 11.018C21.2978 10.8138 19.2014 9.66158 16.5117 8.17603L12.7833 11.9465L16.5115 15.6616H16.5117Z" fill="#FFD900"/>
<path d="M12.7833 11.9465L0.911133 23.928C1.18961 23.965 1.50423 23.891 1.87533 23.6868C2.65408 23.2601 10.9091 18.7457 16.5119 15.6625L12.7833 11.9465Z" fill="#F43249"/>
<path d="M12.7833 11.9465L16.5115 8.19434C16.5115 8.19434 2.71037 0.65244 1.87515 0.207423C1.56093 0.0203045 1.20832 -0.0350175 0.892883 0.0203045L12.7833 11.9463V11.9465Z" fill="#00EE76"/>
<path d="M12.7833 11.9465L0.892659 0.0205078C0.410055 0.132169 0.00219727 0.559084 0.00219727 1.43183V22.516C0.00219727 23.3154 0.31784 23.8909 0.91094 23.9463L12.7831 11.9463L12.7833 11.9465Z" fill="#00D3FF"/>
</svg>
